<svg width="32" height="32" viewBox="0 0 32 32" fill="none" xmlns="http://www.w3.org/2000/svg">
<circle cx="15.6364" cy="15.6364" r="15.6364" fill="white"/>
<g clip-path="url(#clip0)">
<path d="M11.4555 18.8571C11.4555 18.5417 11.3194 18.2723 11.0473 18.0491C10.7751 17.8259 10.4467 17.7143 10.0621 17.7143C9.67748 17.7143 9.3491 17.8259 9.07696 18.0491C8.80482 18.2723 8.66875 18.5417 8.66875 18.8571C8.66875 19.1726 8.80482 19.442 9.07696 19.6652C9.3491 19.8884 9.67748 20 10.0621 20C10.4467 20 10.7751 19.8884 11.0473 19.6652C11.3194 19.442 11.4555 19.1726 11.4555 18.8571ZM22.6023 18.8571C22.6023 18.5417 22.4663 18.2723 22.1941 18.0491C21.922 17.8259 21.5936 17.7143 21.209 17.7143C20.8244 17.7143 20.496 17.8259 20.2238 18.0491C19.9517 18.2723 19.8156 18.5417 19.8156 18.8571C19.8156 19.1726 19.9517 19.442 20.2238 19.6652C20.496 19.8884 20.8244 20 21.209 20C21.5936 20 21.922 19.8884 22.1941 19.6652C22.4663 19.442 22.6023 19.1726 22.6023 18.8571ZM22.1016 15.3214L21.3178 11.8929C21.2815 11.756 21.1999 11.6443 21.0729 11.558C20.9459 11.4717 20.799 11.4286 20.632 11.4286H10.639C10.4721 11.4286 10.3252 11.4717 10.1982 11.558C10.0712 11.6443 9.98954 11.756 9.95325 11.8929L9.16949 15.3214C9.1332 15.5 9.184 15.6577 9.32189 15.7946C9.45977 15.9315 9.63757 16 9.85528 16H21.4158C21.6335 16 21.8113 15.9315 21.9492 15.7946C22.0871 15.6577 22.1379 15.5 22.1016 15.3214ZM19.6414 9.85714C19.6414 9.7381 19.5907 9.6369 19.4891 9.55357C19.3875 9.47024 19.2641 9.42857 19.1189 9.42857H12.1521C12.007 9.42857 11.8836 9.47024 11.782 9.55357C11.6804 9.6369 11.6296 9.7381 11.6296 9.85714C11.6296 9.97619 11.6804 10.0774 11.782 10.1607C11.8836 10.244 12.007 10.2857 12.1521 10.2857H19.1189C19.2641 10.2857 19.3875 10.244 19.4891 10.1607C19.5907 10.0774 19.6414 9.97619 19.6414 9.85714ZM23.9957 16.3304V21.7143H22.6023V22.8571C22.6023 23.1726 22.4663 23.442 22.1941 23.6652C21.922 23.8884 21.5936 24 21.209 24C20.8244 24 20.496 23.8884 20.2238 23.6652C19.9517 23.442 19.8156 23.1726 19.8156 22.8571V21.7143H11.4555V22.8571C11.4555 23.1726 11.3194 23.442 11.0473 23.6652C10.7751 23.8884 10.4467 24 10.0621 24C9.67748 24 9.3491 23.8884 9.07696 23.6652C8.80482 23.442 8.66875 23.1726 8.66875 22.8571V21.7143H7.27539V16.3304C7.27539 15.6637 7.3661 15 7.54753 14.3393L8.66875 10.2857C8.73406 9.82143 9.08785 9.41369 9.7301 9.0625C10.3723 8.71131 11.2069 8.44643 12.2338 8.26786C13.2607 8.08929 14.3946 8 15.6355 8C16.8765 8 18.0104 8.08929 19.0373 8.26786C20.0642 8.44643 20.8987 8.71131 21.541 9.0625C22.1832 9.41369 22.537 9.82143 22.6023 10.2857L23.7453 14.3393C23.9122 14.9464 23.9957 15.6101 23.9957 16.3304Z" fill="#1D2E5B"/>
</g>
<defs>
<clipPath id="clip0">
<rect width="16.7273" height="16" fill="white" transform="translate(7.27271 8)"/>
</clipPath>
</defs>
</svg>
