<svg width="32" height="32" viewBox="0 0 32 32" fill="none" xmlns="http://www.w3.org/2000/svg">
<circle cx="15.6364" cy="15.6364" r="15.6364" fill="white"/>
<g clip-path="url(#clip0)">
<path d="M20.7525 8.85848C20.1673 8.9897 19.5795 9.12153 19.3608 9.48279L17.6684 12.6636L8.58121 14.7015L8.21303 15.7178L15.1668 16.338L13.987 19.0916L11.3498 19.683L10.6877 20.7653L12.5902 20.9601L12.8072 21.8452C12.9044 22.159 13.2455 22.3684 13.5367 22.3031L14.4157 22.106L15.4348 23.745L16.0969 22.6627L15.446 20.0075L17.3554 17.7118L20.9986 23.7432L21.7332 22.9569L19.4912 13.81L21.5501 10.8593C21.7715 10.4974 21.6271 9.9083 21.482 9.3164C21.4101 9.02321 21.0437 8.79318 20.7525 8.85848Z" fill="#1D2E5B"/>
</g>
<defs>
<clipPath id="clip0">
<rect width="16.7273" height="16" fill="white" transform="translate(7.27271 8)"/>
</clipPath>
</defs>
</svg>
