<svg width="33" height="33" viewBox="0 0 33 33" fill="none" xmlns="http://www.w3.org/2000/svg">
<circle cx="16.5718" cy="16.8401" r="16" fill="#EDEFF6"/>
<g clip-path="url(#clip0)">
<path d="M13.2515 19.8571C13.2515 19.5417 13.1457 19.2723 12.9342 19.0491C12.7227 18.8259 12.4675 18.7143 12.1686 18.7143C11.8697 18.7143 11.6144 18.8259 11.4029 19.0491C11.1914 19.2723 11.0857 19.5417 11.0857 19.8571C11.0857 20.1726 11.1914 20.442 11.4029 20.6652C11.6144 20.8884 11.8697 21 12.1686 21C12.4675 21 12.7227 20.8884 12.9342 20.6652C13.1457 20.442 13.2515 20.1726 13.2515 19.8571ZM21.9145 19.8571C21.9145 19.5417 21.8088 19.2723 21.5973 19.0491C21.3858 18.8259 21.1306 18.7143 20.8316 18.7143C20.5327 18.7143 20.2775 18.8259 20.066 19.0491C19.8545 19.2723 19.7487 19.5417 19.7487 19.8571C19.7487 20.1726 19.8545 20.442 20.066 20.6652C20.2775 20.8884 20.5327 21 20.8316 21C21.1306 21 21.3858 20.8884 21.5973 20.6652C21.8088 20.442 21.9145 20.1726 21.9145 19.8571ZM21.5254 16.3214L20.9162 12.8929C20.888 12.756 20.8246 12.6443 20.7259 12.558C20.6272 12.4717 20.513 12.4286 20.3833 12.4286H12.617C12.4872 12.4286 12.373 12.4717 12.2743 12.558C12.1756 12.6443 12.1122 12.756 12.084 12.8929L11.4749 16.3214C11.4467 16.5 11.4861 16.6577 11.5933 16.7946C11.7005 16.9315 11.8386 17 12.0078 17H20.9924C21.1616 17 21.2998 16.9315 21.4069 16.7946C21.5141 16.6577 21.5536 16.5 21.5254 16.3214ZM19.6134 10.8571C19.6134 10.7381 19.5739 10.6369 19.4949 10.5536C19.416 10.4702 19.3201 10.4286 19.2073 10.4286H13.7929C13.6801 10.4286 13.5842 10.4702 13.5053 10.5536C13.4263 10.6369 13.3868 10.7381 13.3868 10.8571C13.3868 10.9762 13.4263 11.0774 13.5053 11.1607C13.5842 11.244 13.6801 11.2857 13.7929 11.2857H19.2073C19.3201 11.2857 19.416 11.244 19.4949 11.1607C19.5739 11.0774 19.6134 10.9762 19.6134 10.8571ZM22.9974 17.3304V22.7143H21.9145V23.8571C21.9145 24.1726 21.8088 24.442 21.5973 24.6652C21.3858 24.8884 21.1306 25 20.8316 25C20.5327 25 20.2775 24.8884 20.066 24.6652C19.8545 24.442 19.7487 24.1726 19.7487 23.8571V22.7143H13.2515V23.8571C13.2515 24.1726 13.1457 24.442 12.9342 24.6652C12.7227 24.8884 12.4675 25 12.1686 25C11.8697 25 11.6144 24.8884 11.4029 24.6652C11.1914 24.442 11.0857 24.1726 11.0857 23.8571V22.7143H10.0028V17.3304C10.0028 16.6637 10.0733 16 10.2143 15.3393L11.0857 11.2857C11.1365 10.8214 11.4114 10.4137 11.9105 10.0625C12.4097 9.71131 13.0583 9.44643 13.8563 9.26786C14.6544 9.08929 15.5357 9 16.5001 9C17.4645 9 18.3458 9.08929 19.1439 9.26786C19.9419 9.44643 20.5905 9.71131 21.0897 10.0625C21.5888 10.4137 21.8638 10.8214 21.9145 11.2857L22.8028 15.3393C22.9325 15.9464 22.9974 16.6101 22.9974 17.3304Z" fill="#1D2E5B"/>
</g>
<defs>
<clipPath id="clip0">
<rect width="13" height="16" fill="white" transform="translate(10 9)"/>
</clipPath>
</defs>
</svg>
